<svg xmlns="http://www.w3.org/2000/svg" viewBox="0 0 311.96 217.92"><defs><style>.cls-1{fill:#5e7fbf;fill-rule:evenodd;}</style></defs><title>wave</title><g id="Слой_2" data-name="Слой 2"><g id="Layer_1" data-name="Layer 1"><path class="cls-1" d="M159.07,61.54c7,6.95.72,27.6-.51,34.49-9.58,53.48,3.07,91.1,70.58,112,38.21,11.85,62.43,5.09,70.21,4.32C291,217.58,168,230.62,133.07,181.75c-6.9,17.51-32.67,15.59-39.64-3.09-6.11,7.71-30,20.19-43.5,18.53,26.42-2.54,42.71-19.31,42.61-19.67-5.8-20.77,11.2-29.09,15.83-30.88-4.49-5.46-8.33-10.45-11.08-17.66-5.51,13.42-18.84,28.55-23.16,33C66,170.23,35.29,194.55,0,190c67,0,93.08-55.61,95.75-64.86,0,0-5.93-13.78-7-23.94-2.4,7.12-8.29,13.5-16.82,14.58-10.5,1.34-30.51-4.64-29.31-30.54,1.15-24.7,26.08-29.86,30.69-29.86,31,0,37.35,24.52,38.35,30.12,1.1-13.6,3.91-27,4.63-41.1C116,46.53,106,58.68,88.54,47,77.38,39.51,70.69,6.83,101.74.76c27.18-5.32,40.56,18.61,40.56,32.56,38.34-3.46,46.42,26.09,46.37,42.38,0,3.24-2,29.72-1.5,30.89a85.7,85.7,0,0,0,.47,12.35c5.71,38.77,50.12,52.22,54.31,53.54,13.07,4.12,48.63,8.69,70,7.21-1.29,1.65-56,2.33-80.56-9.27-4.44-2.1-42.88-16.47-46.08-53.28-13.68,88.3,84,91,103.57,89.15-21.44,4.29-110.32-2.24-107.94-71.91.41-12,5.2-44.24,5.2-52.45.42-11.93-1-46.73-40.85-46.73-26.13,0-40.25,49.22-7.08,54.91C160.1,92.29,162.29,71.92,159.07,61.54ZM114.54,2.86c-35.92-5.3-40.2,35-21,44.1,9.29,6.81,22.51.48,25.63-11.93.51,3-5.7,49.36-5.92,53-.69,11.93,1.49,43.81,12.62,59.73,8.65,4.05,15.13,7.89,21.06,14.67-10.77-17.84-14.57-46.6-11.1-70.16-29-7.38-23-49.89,4.45-58.74C139.42,22.18,130.14,5.16,114.54,2.86ZM110.42,87.8C108.09,72,97.28,62.22,85.71,59c-11.21-3.15-37.33-.76-40.15,25.74-3.32,31.19,28.31,33.14,36.55,23.94,5-6.22,10.1-16.87-3.35-24.71,9.77,2,10.92,13.64,11.84,18.79,1.59,8.85,5.45,17.87,8.75,25.73A57.33,57.33,0,0,0,105,139a47.07,47.07,0,0,0,5.93,6.69c4.67-.27,9.68.16,12.62,1.3C111.47,128.23,111,91.48,110.42,87.8Zm27,4.85c-2.62,16.49-1.09,34.11,2.31,47.91,5.58,22.62,18.67,36.64,35.52,47.88,16.48,11,34.7,18,57.94,21.88-42.33-11.39-54.2-26.15-62.83-35.43-17-18.31-20.89-56.63-11.32-89.41,0-.16,0-.3-.26-.26C154.51,90.1,147,94.63,137.45,92.65Zm-27.21,55.58a22,22,0,0,0-10.89,37.38c11.79,10,23.21,6.39,27.8,1.8,5.39-4.87,5.69-18.79-8.87-18.79,11.52-3.62,13.93,8.43,17.88,13.9,11.13,15.4,48.17,37.67,132.17,33.11-72.95-2-103-32.5-109.77-39C150,168.29,132.89,143.29,110.24,148.23Z"/></g></g></svg>